<?xml version="1.0" standalone="no"?>
<!DOCTYPE svg PUBLIC "-//W3C//DTD SVG 20010904//EN"
 "http://www.w3.org/TR/2001/REC-SVG-20010904/DTD/svg10.dtd">
<svg version="1.0" xmlns="http://www.w3.org/2000/svg"
 width="260.000000pt" height="260.000000pt" viewBox="0 0 260.000000 260.000000"
 preserveAspectRatio="xMidYMid meet">
<metadata>
Created by potrace 1.11, written by Peter Selinger 2001-2013
</metadata>
<g transform="translate(0.000000,260.000000) scale(0.100000,-0.100000)"
fill="#000000" stroke="none">
<path d="M565 2400 c-2 -4 -4 -58 -4 -121 l1 -114 -123 -5 -124 -5 0 -110 c0
-60 -3 -115 -7 -120 -4 -7 -52 -10 -122 -10 l-116 1 0 -368 c0 -343 1 -368 18
-369 9 -1 63 -1 120 -1 72 1 102 -3 103 -11 1 -7 2 -61 3 -122 l1 -110 123 -3
122 -3 1 -77 c0 -42 1 -97 2 -122 l2 -45 120 0 120 -1 3 -122 3 -122 119 0
c89 0 120 -3 121 -12 0 -7 1 -62 2 -123 l2 -110 243 -1 c165 0 242 3 243 10 1
6 2 61 3 121 l1 110 122 3 122 3 3 122 3 122 120 0 120 0 2 100 c1 55 2 110 2
122 1 22 5 22 123 25 l122 3 0 120 1 120 90 2 c50 1 105 2 123 2 l32 1 -2 367
-3 367 -120 1 -120 1 -1 119 -1 120 -121 3 -122 3 -1 57 c-1 31 -1 77 0 102 2
94 23 87 -249 87 -211 -1 -240 -2 -241 -16 -1 -9 -2 -63 -3 -121 l-1 -105
-246 -3 -246 -2 1 116 c1 64 -1 119 -4 123 -7 10 -479 10 -485 1z"/>
</g>
</svg>
